# xmcd CD database file
#
# Track frame offsets:
#	150
#	25646
#	54625
#	97149
#	135760
#	170167
#	204823
#	218671
#	245529
#	273507
#	285205
#	325925
#
# Disc length: 4691 seconds
#
# Revision: 0
# Processed by: cddbd v1.5.2PL0 Copyright (c) Steve Scherf et al.
# Submitted via: CDex 1.70beta2
#
DISCID=a412510c
DTITLE=Pat Metheny - Pat Metheny Group Essential Collection Last Train Home
DYEAR=2015
DGENRE=Jazz
TTITLE0=Last Train Home
TTITLE1=Have You Heard
TTITLE2=Minuano (Six Eight)
TTITLE3=Third Wind
TTITLE4=Here To Stay
TTITLE5=As It Is
TTITLE6=Better Days Ahead
TTITLE7=Follow Me
TTITLE8=Stranger In Town
TTITLE9=Letter From Home
TTITLE10=First Circle (Live Version)
TTITLE11=The Road To You (Live Version)
EXTD=YEAR: 2015
EXTT0=
EXTT1=
EXTT2=
EXTT3=
EXTT4=
EXTT5=
EXTT6=
EXTT7=
EXTT8=
EXTT9=
EXTT10=
EXTT11=
PLAYORDER=
